<?xml version="1.0" encoding="UTF-8"?>
<svg xmlns="http://www.w3.org/2000/svg" xmlns:xlink="http://www.w3.org/1999/xlink" viewBox="0 0 540 120">
  <defs>
    <style>
      .cls-1 {
        fill: #1d1d26;
        fill-rule: evenodd;
      }

      .cls-2 {
        fill: url(#linear-gradient-2);
      }

      .cls-3 {
        fill: url(#linear-gradient-4);
      }

      .cls-4 {
        fill: url(#linear-gradient-3);
      }

      .cls-5 {
        fill: #ed97a0;
      }

      .cls-6 {
        isolation: isolate;
      }

      .cls-7 {
        mix-blend-mode: multiply;
      }

      .cls-8 {
        fill: url(#linear-gradient);
      }
    </style>
    <linearGradient id="linear-gradient" x1="-938.68" y1="144.1" x2="-938.68" y2="153.69" gradientTransform="translate(1423.72 -.37) rotate(4.53)" gradientUnits="userSpaceOnUse">
      <stop offset="0" stop-color="#ed97a0"/>
      <stop offset="1" stop-color="#709ed6"/>
    </linearGradient>
    <linearGradient id="linear-gradient-2" x1="-936.42" y1="119.12" x2="-936.42" y2="159.32" gradientTransform="translate(1423.72 -.37) rotate(4.53)" gradientUnits="userSpaceOnUse">
      <stop offset="0" stop-color="#d15264"/>
      <stop offset="1" stop-color="#275f96"/>
    </linearGradient>
    <linearGradient id="linear-gradient-3" x1="-1023.7" y1="111.41" x2="-1023.7" y2="177.58" xlink:href="#linear-gradient-2"/>
    <linearGradient id="linear-gradient-4" x1="-1055.27" y1="142.37" x2="-906.14" y2="142.37" xlink:href="#linear-gradient"/>
  </defs>
  <g class="cls-6">
    <g id="Layer_1" data-name="Layer 1">
      <g>
        <g>
          <path class="cls-5" d="M431.18,49.88c9.86-6.73,17.14-11.63,21.65-14.6-3.66-6.62-10.71-11.11-18.81-11.11-8.61,0-16.04,5.07-19.46,12.39,6.6,4.57,12.17,9.37,15.03,11.94.5.45,1.02.9,1.6,1.38Z"/>
          <g>
            <g>
              <path class="cls-8" d="M464.79,77.51c.08.02.15.04.23.05,10.27,2.35,18.32-1.73,22.63-7.53-6.31,7.97-15.19,8.82-22.85,7.48Z"/>
              <path class="cls-2" d="M505.02,46.34l-13.83,7.81s1.21,5.75-1.25,11.79c-.39,1.26-1.13,2.62-2.29,4.09-4.31,5.81-12.36,9.88-22.63,7.53-.08-.02-.15-.04-.23-.05-8.72-1.53-15.88-5.92-15.88-5.92l-.56-.34c5.14,3.71,8.67,6.22,8.67,6.22,0,0,20.8,14.45,41.43,2.28,20.62-12.16,6.56-33.41,6.56-33.41Z"/>
              <path class="cls-4" d="M432.75,56.75c-1.74-1.28-3.42-2.64-5.02-4.09-4.84-4.36-17.17-14.84-29.11-19.95-15.3-6.55-46.23-8.43-50.87,23.61-4.64,32.04,31.36,39.75,40.36,39.23l-3.62-9.63s-14.44-9.06-9.24-27.8c3.54-12.76,15.45-17.7,26.9-16.25,15.19,1.74,28.4,13.58,28.4,13.58l1.96,4.25c1.32.97,2.64,1.95,3.95,2.91l-1.6-4.3-2.12-1.56Z"/>
            </g>
            <g class="cls-7">
              <path class="cls-8" d="M464.79,77.51c.08.02.15.04.23.05,10.27,2.35,18.32-1.73,22.63-7.53-6.31,7.97-15.19,8.82-22.85,7.48Z"/>
            </g>
            <path class="cls-3" d="M491.8,35.59c-9.11-4.55-19.81-4.95-29.13-.84-2.66,1.17-5.55,2.72-8.63,4.74-15.54,10.21-60.46,41.25-60.46,41.25,0,0-20.89,13.26-35.2,4.33,0,0,20.03,21.06,57.11,4.27,37.08-16.79,44.27-26.38,77.72-35.31,0,0,16.68-4.29,15.69,13.5,0,0,6.81-19.99-17.1-31.94Z"/>
          </g>
        </g>
        <path class="cls-1" d="M70.01,79.76v-17.97h-32.34v17.97h-7.47v-39.52h7.47v15.72h32.34v-15.72h7.47v39.52h-7.47ZM85.05,79.76v-39.52h7.47v39.52h-7.47ZM153.38,79.76v-27.68l-20.1,27.68h-6.12l-20.16-27.62v27.62h-6.91v-39.52h6.96l23.47,32.28,23.36-32.28h6.4v39.52h-6.91ZM167.86,79.76v-39.52h7.47v39.52h-7.47ZM201.27,79.76v-33.69h-20.72v-5.84h48.34v5.84h-20.15v33.69h-7.47ZM232.82,79.76v-5.84h34.36c3.29,0,4.94-1.22,4.94-3.65v-5c0-2.43-1.65-3.65-4.94-3.65h-23.24c-2.25,0-4.15-.23-5.73-.7-1.57-.47-2.85-1.12-3.85-1.97-.99-.84-1.71-1.84-2.16-3-.45-1.16-.67-2.45-.67-3.87v-2.3c0-1.42.22-2.71.67-3.87.45-1.16,1.17-2.16,2.16-3,.99-.84,2.27-1.5,3.85-1.96,1.57-.47,3.48-.7,5.73-.7h33.46v5.84h-33.46c-3.29,0-4.94,1.22-4.94,3.65v2.41c0,2.43,1.65,3.65,4.94,3.65h23.24c2.25,0,4.15.23,5.73.7,1.57.47,2.85,1.12,3.85,1.96.99.84,1.71,1.84,2.16,3,.45,1.16.67,2.45.67,3.87v4.88c0,1.42-.22,2.71-.67,3.87s-1.17,2.16-2.16,3c-.99.84-2.27,1.5-3.85,1.96-1.57.47-3.48.7-5.73.7h-34.36ZM297.95,79.76c-2.25,0-4.15-.23-5.73-.7-1.57-.47-2.85-1.12-3.85-1.96-.99-.84-1.71-1.84-2.16-3-.45-1.16-.67-2.45-.67-3.87v-29.98h7.47v30.04c0,2.43,1.65,3.65,4.94,3.65h24.53c3.29,0,4.94-1.22,4.94-3.65v-30.04h7.47v29.98c0,1.42-.14,2.71-.42,3.87-.28,1.16-.82,2.16-1.63,3-.8.84-1.91,1.5-3.31,1.96-1.4.47-3.23.7-5.47.7h-26.11Z"/>
      </g>
    </g>
  </g>
</svg>