<?xml version="1.0" encoding="UTF-8"?>
<svg xmlns="http://www.w3.org/2000/svg" xmlns:xlink="http://www.w3.org/1999/xlink" viewBox="0 0 380 270">
  <defs>
    <style>
      .cls-1 {
        fill: #1d1d26;
        fill-rule: evenodd;
      }

      .cls-2 {
        fill: url(#linear-gradient-2);
      }

      .cls-3 {
        fill: url(#linear-gradient-4);
      }

      .cls-4 {
        fill: url(#linear-gradient-3);
      }

      .cls-5 {
        fill: #ed97a0;
      }

      .cls-6 {
        isolation: isolate;
      }

      .cls-7 {
        mix-blend-mode: multiply;
      }

      .cls-8 {
        fill: url(#linear-gradient);
      }
    </style>
    <linearGradient id="linear-gradient" x1="-1128.76" y1="224.85" x2="-1128.76" y2="243.72" gradientTransform="translate(1427.49 54.26) rotate(4.53)" gradientUnits="userSpaceOnUse">
      <stop offset="0" stop-color="#ed97a0"/>
      <stop offset="1" stop-color="#709ed6"/>
    </linearGradient>
    <linearGradient id="linear-gradient-2" x1="-1124.31" y1="175.69" x2="-1124.31" y2="254.81" gradientTransform="translate(1427.49 54.26) rotate(4.53)" gradientUnits="userSpaceOnUse">
      <stop offset="0" stop-color="#d15264"/>
      <stop offset="1" stop-color="#275f96"/>
    </linearGradient>
    <linearGradient id="linear-gradient-3" x1="-1296.07" y1="160.52" x2="-1296.07" y2="290.73" xlink:href="#linear-gradient-2"/>
    <linearGradient id="linear-gradient-4" x1="-1358.2" y1="221.45" x2="-1064.72" y2="221.45" xlink:href="#linear-gradient"/>
  </defs>
  <g class="cls-6">
    <g id="Layer_1" data-name="Layer 1">
      <g>
        <g>
          <path class="cls-5" d="M195.14,151.36c19.41-13.24,33.73-22.89,42.61-28.74-7.2-13.04-21.08-21.87-37.02-21.87-16.95,0-31.57,9.99-38.3,24.39,12.99,9,23.94,18.43,29.58,23.5.98.88,2.01,1.77,3.14,2.71Z"/>
          <g>
            <g>
              <path class="cls-8" d="M261.29,205.72c.15.04.3.07.44.11,20.21,4.63,36.05-3.4,44.53-14.82-12.43,15.68-29.89,17.37-44.97,14.72Z"/>
              <path class="cls-2" d="M340.46,144.39l-27.21,15.37s2.37,11.31-2.46,23.2c-.76,2.48-2.22,5.16-4.51,8.05-8.48,11.43-24.32,19.45-44.53,14.82-.15-.03-.3-.07-.44-.11-17.17-3.02-31.24-11.66-31.24-11.66l-1.1-.66c10.11,7.29,17.06,12.24,17.06,12.24,0,0,40.94,28.43,81.53,4.49,40.59-23.94,12.91-65.74,12.91-65.74Z"/>
              <path class="cls-4" d="M198.23,164.87c-3.43-2.52-6.73-5.2-9.89-8.05-9.53-8.58-33.79-29.2-57.29-39.26-30.12-12.89-90.98-16.59-100.1,46.47-9.12,63.06,61.71,78.24,79.43,77.2l-7.13-18.95s-28.42-17.82-18.18-54.72c6.97-25.12,30.41-34.84,52.95-31.98,29.89,3.43,55.9,26.72,55.9,26.72l3.86,8.36c2.6,1.92,5.2,3.83,7.78,5.72l-3.15-8.47-4.17-3.06Z"/>
            </g>
            <g class="cls-7">
              <path class="cls-8" d="M261.29,205.72c.15.04.3.07.44.11,20.21,4.63,36.05-3.4,44.53-14.82-12.43,15.68-29.89,17.37-44.97,14.72Z"/>
            </g>
            <path class="cls-3" d="M314.43,123.22c-17.93-8.96-38.99-9.74-57.33-1.65-5.24,2.31-10.93,5.35-16.98,9.32-30.57,20.09-118.99,81.18-118.99,81.18,0,0-41.12,26.1-69.27,8.52,0,0,39.42,41.45,112.39,8.4,72.97-33.05,87.12-51.91,152.95-69.49,0,0,32.82-8.44,30.89,26.58,0,0,13.4-39.35-33.66-62.86Z"/>
          </g>
        </g>
        <path class="cls-1" d="M77.86,68.71v-18.4h-33.12v18.4h-7.65V28.22h7.65v16.1h33.12v-16.1h7.65v40.49h-7.65ZM93.27,68.71V28.22h7.65v40.49h-7.65ZM163.26,68.71v-28.35l-20.59,28.35h-6.27l-20.65-28.29v28.29h-7.07V28.22h7.13l24.04,33.07,23.92-33.07h6.56v40.49h-7.07ZM178.1,68.71V28.22h7.65v40.49h-7.65ZM212.32,68.71v-34.5h-21.22v-5.98h49.51v5.98h-20.65v34.5h-7.65ZM244.64,68.71v-5.98h35.2c3.37,0,5.06-1.25,5.06-3.74v-5.12c0-2.49-1.69-3.74-5.06-3.74h-23.81c-2.3,0-4.26-.24-5.87-.72-1.61-.48-2.92-1.15-3.94-2.01-1.02-.86-1.75-1.89-2.21-3.08-.46-1.19-.69-2.51-.69-3.97v-2.36c0-1.46.23-2.78.69-3.97.46-1.19,1.2-2.21,2.21-3.08,1.02-.86,2.33-1.53,3.94-2.01,1.61-.48,3.57-.72,5.87-.72h34.27v5.98h-34.27c-3.37,0-5.06,1.25-5.06,3.74v2.47c0,2.49,1.69,3.74,5.06,3.74h23.81c2.3,0,4.26.24,5.87.72,1.61.48,2.92,1.15,3.94,2.01,1.02.86,1.75,1.89,2.21,3.08.46,1.19.69,2.51.69,3.97v5c0,1.46-.23,2.78-.69,3.97-.46,1.19-1.2,2.21-2.21,3.08-1.02.86-2.33,1.53-3.94,2.01-1.61.48-3.57.72-5.87.72h-35.2ZM311.35,68.71c-2.3,0-4.26-.24-5.87-.72-1.61-.48-2.92-1.15-3.94-2.01-1.02-.86-1.75-1.89-2.21-3.08-.46-1.19-.69-2.51-.69-3.97v-30.71h7.65v30.77c0,2.49,1.69,3.74,5.06,3.74h25.13c3.37,0,5.06-1.25,5.06-3.74v-30.77h7.65v30.71c0,1.46-.14,2.78-.43,3.97-.29,1.19-.84,2.21-1.67,3.08-.82.86-1.96,1.53-3.39,2.01-1.44.48-3.31.72-5.61.72h-26.74Z"/>
      </g>
    </g>
  </g>
</svg>