<svg width="121" height="52" viewBox="0 0 121 52" fill="none" xmlns="http://www.w3.org/2000/svg">
<path d="M62.3351 19.1066C69.6611 14.1114 75.0641 10.4649 78.4191 8.25872C75.7051 3.33845 70.4603 0 64.4413 0C58.0394 0 52.5282 3.77137 49.9807 9.2078C54.8842 12.6045 59.0217 16.1678 61.1446 18.0826C61.5109 18.4156 61.9022 18.7486 62.3268 19.1066H62.3351Z" fill="#ED97A0"/>
<path d="M87.252 38.3797C87.3102 38.3964 87.3602 38.4047 87.4184 38.4213C95.0442 40.1697 101.03 37.1392 104.227 32.8267C99.5397 38.746 92.9463 39.3788 87.252 38.3797Z" fill="url(#paint0_linear_17_67)"/>
<path d="M117.314 15.1687L106.866 21.0297C106.866 21.0297 107.765 25.3006 105.933 29.788C105.65 30.7204 105.092 31.7361 104.227 32.8267C101.03 37.1392 95.0441 40.1697 87.4184 38.4213C87.3601 38.4047 87.3102 38.3964 87.2519 38.3797C80.7667 37.2391 75.4553 33.9839 75.4553 33.9839L75.0391 33.7342C78.8519 36.4899 81.4826 38.3547 81.4826 38.3547C81.4826 38.3547 96.9339 49.0861 112.26 40.0531C127.578 31.0201 117.314 15.177 117.314 15.177V15.1687Z" fill="url(#paint1_linear_17_67)"/>
<path d="M63.4507 22.9612C62.152 22.0121 60.9116 20.9964 59.7211 19.9225C56.1247 16.6839 46.9671 8.89976 38.0926 5.10342C26.7206 0.233107 3.75179 -1.15722 0.30522 22.6449C-3.14135 46.4469 23.5987 52.1748 30.2837 51.7835L27.5947 44.632C27.5947 44.632 16.8721 37.9052 20.7349 23.9769C23.3656 14.4944 32.2151 10.8229 40.7233 11.9052C52.0037 13.1956 61.8273 21.9872 61.8273 21.9872L63.2842 25.1425C64.2665 25.8668 65.2489 26.5911 66.2229 27.307L65.0325 24.1101L63.459 22.9529L63.4507 22.9612Z" fill="url(#paint2_linear_17_67)"/>
<g style="mix-blend-mode:multiply">
<path d="M87.252 38.3797C87.3102 38.3964 87.3602 38.4047 87.4184 38.4213C95.0442 40.1697 101.03 37.1392 104.227 32.8267C99.5397 38.746 92.9463 39.3788 87.252 38.3797Z" fill="url(#paint3_linear_17_67)"/>
<path d="M117.314 15.1687L106.866 21.0297C106.866 21.0297 107.765 25.3006 105.933 29.788C105.65 30.7204 105.092 31.7361 104.227 32.8267C101.03 37.1392 95.0441 40.1697 87.4184 38.4213C87.3601 38.4047 87.3102 38.3964 87.2519 38.3797C80.7667 37.2391 75.4553 33.9839 75.4553 33.9839L75.0391 33.7342C78.8519 36.4899 81.4826 38.3547 81.4826 38.3547C81.4826 38.3547 96.9339 49.0861 112.26 40.0531C127.578 31.0201 117.314 15.177 117.314 15.177V15.1687Z" fill="url(#paint4_linear_17_67)"/>
<path d="M63.4507 22.9612C62.152 22.0121 60.9116 20.9964 59.7211 19.9225C56.1247 16.6839 46.9671 8.89976 38.0926 5.10342C26.7206 0.233107 3.75179 -1.15722 0.30522 22.6449C-3.14135 46.4469 23.5987 52.1748 30.2837 51.7835L27.5947 44.632C27.5947 44.632 16.8721 37.9052 20.7349 23.9769C23.3656 14.4944 32.2151 10.8229 40.7233 11.9052C52.0037 13.1956 61.8273 21.9872 61.8273 21.9872L63.2842 25.1425C64.2665 25.8668 65.2489 26.5911 66.2229 27.307L65.0325 24.1101L63.459 22.9529L63.4507 22.9612Z" fill="url(#paint5_linear_17_67)"/>
</g>
<path d="M107.307 7.24303C100.539 3.86295 92.5884 3.56323 85.6703 6.61863C83.6972 7.49278 81.541 8.63335 79.26 10.1402C67.7215 17.7246 34.3464 40.7857 34.3464 40.7857C34.3464 40.7857 18.8285 50.6346 8.19739 43.9993C8.19739 43.9993 23.0826 59.6509 50.6218 47.1712C78.1611 34.6916 83.5058 27.5735 108.356 20.9382C108.356 20.9382 120.744 17.7496 120.011 30.9702C120.011 30.9702 125.073 16.1178 107.307 7.24303Z" fill="url(#paint6_linear_17_67)"/>
<defs>
<linearGradient id="paint0_linear_17_67" x1="96.0114" y1="32.1707" x2="95.4491" y2="39.2666" gradientUnits="userSpaceOnUse">
<stop stop-color="#ED97A0"/>
<stop offset="1" stop-color="#709ED6"/>
</linearGradient>
<linearGradient id="paint1_linear_17_67" x1="99.1848" y1="13.7233" x2="96.8195" y2="43.5759" gradientUnits="userSpaceOnUse">
<stop stop-color="#ED97A0"/>
<stop offset="1" stop-color="#709ED6"/>
</linearGradient>
<linearGradient id="paint2_linear_17_67" x1="34.9729" y1="2.97348" x2="31.0906" y2="51.9726" gradientUnits="userSpaceOnUse">
<stop stop-color="#ED97A0"/>
<stop offset="1" stop-color="#709ED6"/>
</linearGradient>
<linearGradient id="paint3_linear_17_67" x1="96.0114" y1="32.1707" x2="95.4491" y2="39.2666" gradientUnits="userSpaceOnUse">
<stop stop-color="#ED97A0"/>
<stop offset="1" stop-color="#709ED6"/>
</linearGradient>
<linearGradient id="paint4_linear_17_67" x1="99.1848" y1="13.7233" x2="96.8195" y2="43.5759" gradientUnits="userSpaceOnUse">
<stop stop-color="#ED97A0"/>
<stop offset="1" stop-color="#709ED6"/>
</linearGradient>
<linearGradient id="paint5_linear_17_67" x1="34.9729" y1="2.97348" x2="31.0906" y2="51.9726" gradientUnits="userSpaceOnUse">
<stop stop-color="#ED97A0"/>
<stop offset="1" stop-color="#709ED6"/>
</linearGradient>
<linearGradient id="paint6_linear_17_67" x1="9.77844" y1="24.0439" x2="120.214" y2="32.7932" gradientUnits="userSpaceOnUse">
<stop stop-color="#ED97A0"/>
<stop offset="1" stop-color="#709ED6"/>
</linearGradient>
</defs>
</svg>
